<?xml version="1.0" encoding="utf-8"?>
<!-- Generator: Adobe Illustrator 27.4.1, SVG Export Plug-In . SVG Version: 6.00 Build 0)  -->
<svg version="1.1" id="Capa_1" xmlns="http://www.w3.org/2000/svg" xmlns:xlink="http://www.w3.org/1999/xlink" x="0px" y="0px"
	 viewBox="0 0 2048 2048" style="enable-background:new 0 0 2048 2048;" xml:space="preserve">
<style type="text/css">
	.st0{fill:#5D5E60;}
</style>
<path class="st0" d="M1103,1920c15.3,24.7,32.7,47.3,52,68s40,40.7,62,60H128V0h1115l549,549v494c-42-14.7-84.7-24.3-128-29V640
	h-512V128H256v1792H1103z M1280,219v293h293L1280,219z M1152,1217c-8.7,10-17,20-25,30s-16,21-24,33H512v-128h640V1217z M512,1536
	v-128h512v60c0,9.3-1.3,20.3-4,33s-4.7,24.3-6,35H512z M1408,896v128H512V896H1408z M1920,1600c0,20.7-2,41-6,61l124,51l-49,119
	l-124-52c-23.3,34-52,62.7-86,86l52,124l-119,49l-51-124c-20,4-40.3,6-61,6s-41-2-61-6l-51,124l-119-49l52-124
	c-34-23.3-62.7-52-86-86l-124,52l-49-119l124-51c-4-20-6-40.3-6-61s2-41,6-61l-124-51l49-119l124,52c12-16.7,25-32.3,39-47
	s29.7-27.7,47-39l-52-124l119-49l51,124c20-4,40.3-6,61-6s41,2,61,6l51-124l119,49l-52,124c34,23.3,62.7,52,86,86l124-52l49,119
	l-124,51C1918,1559,1920,1579.3,1920,1600 M1792,1600c0-26.7-5-51.7-15-75s-23.7-43.7-41-61s-37.7-31-61-41s-48.3-15-75-15
	s-51.7,5-75,15s-43.7,23.7-61,41s-31,37.7-41,61s-15,48.3-15,75s5,51.7,15,75s23.7,43.7,41,61s37.7,31,61,41s48.3,15,75,15
	s51.7-5,75-15s43.7-23.7,61-41s31-37.7,41-61S1792,1626.7,1792,1600"/>
</svg>
