<svg xmlns="http://www.w3.org/2000/svg" viewBox="0 0 800 186" width="800" height="186">
  <path d="M 613.9 0 h 186 v 186 h -186 Z M 91.522 77.386 v 31.244 h 41.863 v 30.346 c -9.54 9.744 -22.707 14.676 -39.166 14.676 c -33.927 0 -57.325 -23.286 -57.325 -60.762 c 0 -37.331 23.474 -60.523 57.53 -60.523 c 17.048 0 32.962 6.007 46.017 17.355 l 1.878 1.64 l 22.578 -21.59 l -1.843 -1.97 C 146.406 9.892 122.599 0.428 94.219 0.428 C 39.027 0.428 0.1 37.58 0.1 92.882 c 0 55.446 38.927 92.691 94.119 92.691 c 32.245 0 58.928 -12.355 75.123 -34.805 l 0.521 -0.716 V 77.386 H 91.522 Z M 340.853 34.966 V 3.515 H 202.354 v 178.566 h 37.025 V 108.63 h 94.357 V 77.178 h -94.357 V 34.966 h 101.474 Z M 370.284 3.617 v 31.418 h 49.126 v 146.943 h 36.973 V 35.035 h 49.082 V 3.617 H 370.284 Z" fill="#0B1A2B"/>
</svg>
