<?xml version="1.0" encoding="utf-8"?>
<!-- Generator: Adobe Illustrator 27.4.1, SVG Export Plug-In . SVG Version: 6.00 Build 0)  -->
<svg version="1.1" id="Capa_1" xmlns="http://www.w3.org/2000/svg" xmlns:xlink="http://www.w3.org/1999/xlink" x="0px" y="0px"
	 viewBox="0 0 24 24" style="enable-background:new 0 0 24 24;" xml:space="preserve">
<style type="text/css">
	.st0{fill:#5D5E60;}
</style>
<circle class="st0" cx="12" cy="6" r="1"/>
<path class="st0" d="M6,17h12v2H6V17z M10,11.8l2.8,2.8l3.9-3.9L18,12V8h-4l1.3,1.3l-2.5,2.5L10,9l-4,4l1.4,1.4L10,11.8z"/>
<path class="st0" d="M19,3h-3.3c-0.1-0.1-0.2-0.3-0.3-0.4l0,0c-0.7-0.9-1.8-1.4-2.9-1.5c-0.3-0.1-0.6-0.1-1,0
	c-1.1,0.1-2.2,0.7-2.9,1.5l0,0C8.5,2.7,8.4,2.9,8.3,3v0H5C3.3,3,2,4.3,2,6v14c0,1.7,1.3,3,3,3h14c1.7,0,3-1.3,3-3V6
	C22,4.3,20.7,3,19,3 M20,20c0,0.6-0.4,1-1,1H5c-0.6,0-1-0.4-1-1V6c0-0.6,0.4-1,1-1h4.6c0.3-1.4,1.6-2.2,2.9-2c1,0.2,1.8,1,2,2H19
	c0.6,0,1,0.4,1,1V20z"/>
</svg>
